<svg width="82" height="24" viewBox="0 0 82 24" fill="none" xmlns="http://www.w3.org/2000/svg">
<path fill-rule="evenodd" clip-rule="evenodd" d="M43.4492 9.32632C43.8043 8.45404 44 7.49987 44 6.5C44 5.70652 43.8768 4.94183 43.6484 4.224H47.0051C47.6211 4.84 48.3027 5.596 49.0493 6.492C49.796 7.38801 50.5518 8.34934 51.3171 9.37601C52.1011 10.384 52.8758 11.4387 53.6411 12.54C54.4064 13.6227 55.1251 14.668 55.7971 15.676V4.224H60.1372V23.628H56.4692C55.2186 21.4067 53.8652 19.2133 52.4092 17.048C50.9532 14.8827 49.4039 12.8387 47.7612 10.916V23.628H43.4492V9.32632ZM34.5898 13.7546V23.628H38.9578V13.588C38.1878 13.855 37.3608 14 36.5 14C35.8399 14 35.1997 13.9147 34.5898 13.7546ZM6.46802 23.88C5.40402 23.88 4.33988 23.8427 3.27588 23.768C2.23055 23.712 1.13867 23.5627 0 23.32V4.504C0.896 4.336 1.87594 4.21467 2.93994 4.14C4.00394 4.04667 4.99329 4 5.90796 4C7.13996 4 8.26923 4.09333 9.2959 4.28C10.3412 4.448 11.2372 4.74666 11.9839 5.17599C12.7306 5.60533 13.3093 6.17467 13.72 6.884C14.1493 7.57467 14.364 8.43332 14.364 9.45999C14.364 11.0093 13.6174 12.232 12.124 13.128C13.356 13.5947 14.196 14.2293 14.644 15.032C15.092 15.8347 15.3159 16.74 15.3159 17.748C15.3159 19.7827 14.5693 21.3133 13.0759 22.34C11.6013 23.3667 9.39868 23.88 6.46802 23.88ZM4.2561 15.172V20.184C4.57344 20.2213 4.91866 20.2493 5.29199 20.268C5.66533 20.2867 6.07593 20.296 6.52393 20.296C7.83059 20.296 8.88532 20.1093 9.68799 19.736C10.4907 19.3627 10.8921 18.672 10.8921 17.664C10.8921 16.768 10.556 16.1333 9.88403 15.76C9.21203 15.368 8.25067 15.172 7 15.172H4.2561ZM4.2561 11.84H6.38403C7.72803 11.84 8.6894 11.672 9.26807 11.336C9.84673 10.9813 10.136 10.4213 10.136 9.65601C10.136 8.87201 9.83732 8.32133 9.23999 8.004C8.64266 7.68666 7.76524 7.52802 6.60791 7.52802C6.23458 7.52802 5.83339 7.53733 5.40405 7.556C4.97472 7.556 4.5921 7.57467 4.2561 7.612V11.84ZM31.7766 19.876V23.628H18.8125V4.224H23.1804V19.876H31.7766ZM74.6653 21.584C75.2066 22.312 75.6732 22.9933 76.0652 23.628H81.2454C79.92 21.4813 78.5292 19.5213 77.0732 17.748C75.6359 15.9747 74.1426 14.444 72.5933 13.156C74.0679 11.6813 75.4679 10.216 76.7932 8.76001C78.1372 7.30401 79.472 5.792 80.7974 4.224H75.6172C74.6279 5.32533 73.5546 6.52933 72.3972 7.836C71.2586 9.124 70.1199 10.3653 68.9812 11.56V4.224H64.6133V23.628H68.9812V15.424C69.6532 15.9467 70.3253 16.5533 70.9973 17.244C71.6693 17.916 72.3132 18.6253 72.9292 19.372C73.5639 20.1 74.1426 20.8373 74.6653 21.584Z" fill="black"/>
<circle cx="36.5" cy="6.5" r="6.5" fill="#FFC71E"/>
</svg>
