<svg width="44" height="44" viewBox="0 0 44 44" fill="none" xmlns="http://www.w3.org/2000/svg">
<path d="M42.1318 13.3985C41.0363 10.7839 39.4425 8.40735 37.4394 6.40141C35.4422 4.39198 33.0699 2.79436 30.457 1.69926C27.7803 0.571976 24.9043 -0.00587085 21.9999 4.49674e-05H21.9023C18.9482 0.0146934 16.0917 0.600631 13.4013 1.75297C10.8108 2.8593 8.46074 4.45975 6.48237 6.46489C4.49863 8.46632 2.92315 10.8345 1.84369 13.4375C0.723162 16.1444 0.155384 19.048 0.173773 21.9776C0.188421 25.3663 0.998968 28.7305 2.51264 31.7383V39.1602C2.51264 40.4004 3.5185 41.4063 4.75385 41.4063H12.166C15.1878 42.9311 18.5224 43.7334 21.9072 43.75H22.0097C24.9296 43.75 27.7568 43.1836 30.4228 42.0752C33.0225 40.9932 35.386 39.4142 37.3808 37.4268C39.3925 35.4297 40.9746 33.0957 42.083 30.4932C43.2304 27.7979 43.8163 24.9317 43.831 21.9727C43.8408 18.9991 43.2646 16.1133 42.1318 13.3985ZM12.2539 24.2188C10.9648 24.2188 9.91498 23.169 9.91498 21.875C9.91498 20.5811 10.9648 19.5313 12.2539 19.5313C13.5429 19.5313 14.5927 20.5811 14.5927 21.875C14.5927 23.169 13.5478 24.2188 12.2539 24.2188ZM21.9999 24.2188C20.7109 24.2188 19.6611 23.169 19.6611 21.875C19.6611 20.5811 20.7109 19.5313 21.9999 19.5313C23.289 19.5313 24.3388 20.5811 24.3388 21.875C24.3388 23.169 23.289 24.2188 21.9999 24.2188ZM31.746 24.2188C30.457 24.2188 29.4072 23.169 29.4072 21.875C29.4072 20.5811 30.457 19.5313 31.746 19.5313C33.0351 19.5313 34.0849 20.5811 34.0849 21.875C34.0849 23.169 33.0351 24.2188 31.746 24.2188Z" fill="#B5D4D9"/>
</svg>
