<svg width="22" height="21" viewBox="0 0 22 21" fill="none" xmlns="http://www.w3.org/2000/svg">
<path fill-rule="evenodd" clip-rule="evenodd" d="M14.9606 1.61018e-05C13.5681 0 12.6705 0.172464 11.6415 0.696073C11.2605 0.88993 10.9031 1.12339 10.5712 1.39576C10.2521 1.13866 9.90895 0.915918 9.54375 0.728134C8.49481 0.188775 7.55115 0 6.2086 0C2.61293 0 0 3.09727 0 7.11988C0 10.1578 1.62929 13.0923 4.66408 15.9299C6.25703 17.4193 8.29089 18.8933 9.74747 19.6775L10.5809 20.1261L11.4142 19.6775C12.8708 18.8933 14.9047 17.4193 16.4976 15.9299C19.5324 13.0923 21.1617 10.1578 21.1617 7.11988C21.1617 3.13985 18.5241 0.0153583 14.9606 1.61018e-05ZM19.2381 7.11987C19.2381 9.49989 17.8781 11.9493 15.2113 14.4429C13.7574 15.8023 11.8882 17.1609 10.581 17.8737C9.27385 17.1609 7.40468 15.8023 5.95073 14.4429C3.28392 11.9493 1.92397 9.49989 1.92397 7.11987C1.92397 4.14772 3.73584 2 6.20878 2C7.27623 2 7.93402 2.13159 8.69104 2.52084C9.1382 2.75077 9.53341 3.05437 9.87551 3.43377L10.5833 4.2187L11.2846 3.42755C11.6344 3.03295 12.0354 2.72244 12.4874 2.49243C13.2223 2.11849 13.839 2 14.9568 2.00001C17.3992 2.01053 19.2381 4.18896 19.2381 7.11987Z" fill="#CF3737"/>
<path d="M5.5 1L10 2H11L15.5 1L19 3L20 7L18 13.5L10.5 18.5L5.5 15L1 10.5V4.5L5.5 1Z" fill="#CF3737"/>
</svg>
