<svg width="22" height="21" viewBox="0 0 22 21" fill="none" xmlns="http://www.w3.org/2000/svg">
<path fill-rule="evenodd" clip-rule="evenodd" d="M15.2273 1.61018e-05C13.8347 0 12.9371 0.172464 11.9082 0.696073C11.5272 0.88993 11.1698 1.12339 10.8379 1.39576C10.5187 1.13866 10.1756 0.915918 9.81041 0.728134C8.76147 0.188775 7.81781 0 6.47526 0C2.87959 0 0.266663 3.09727 0.266663 7.11988C0.266663 10.1578 1.89595 13.0923 4.93074 15.9299C6.52369 17.4193 8.55755 18.8933 10.0141 19.6775L10.8475 20.1261L11.6809 19.6775C13.1375 18.8933 15.1713 17.4193 16.7643 15.9299C19.7991 13.0923 21.4284 10.1578 21.4284 7.11988C21.4284 3.13985 18.7908 0.0153583 15.2273 1.61018e-05ZM19.5048 7.11987C19.5048 9.49989 18.1448 11.9493 15.478 14.4429C14.0241 15.8023 12.1549 17.1609 10.8477 17.8737C9.54052 17.1609 7.67134 15.8023 6.21739 14.4429C3.55058 11.9493 2.19063 9.49989 2.19063 7.11987C2.19063 4.14772 4.0025 2 6.47544 2C7.54289 2 8.20068 2.13159 8.9577 2.52084C9.40486 2.75077 9.80007 3.05437 10.1422 3.43377L10.8499 4.2187L11.5513 3.42755C11.9011 3.03295 12.3021 2.72244 12.7541 2.49243C13.4889 2.11849 14.1056 2 15.2234 2.00001C17.6658 2.01053 19.5048 4.18896 19.5048 7.11987Z" fill="#4F4F4F"/>
</svg>
