<svg width="14" height="22" viewBox="0 0 14 22" fill="none" xmlns="http://www.w3.org/2000/svg">
<path fill-rule="evenodd" clip-rule="evenodd" d="M6 22V18H1.81818C0.814028 18 0 17.1046 0 16V7C0 3.13401 3.13401 0 7 0C10.866 0 14 3.13401 14 7V16C14 17.1046 13.186 18 12.1818 18H8V22H6ZM11.651 12.3368C11.629 12.3512 11.5703 12.3917 11.5035 12.4377C11.411 12.5015 11.3028 12.5761 11.2549 12.6071C10.8572 12.8641 10.4792 13 10 13C9.39206 13 9.00723 12.8537 8.08214 12.3965C7.76429 12.2394 7.60962 12.1677 7.44558 12.1054C7.25362 12.0325 7.10842 12 7 12C6.81454 12 6.56925 12.0856 6.10374 12.3176C6.02993 12.3545 6.0298 12.3545 5.95362 12.3929L5.95342 12.393L5.95321 12.3931C5.06611 12.8399 4.63902 13 4 13C3.3617 13 2.92806 12.8384 2.0416 12.3939L2 12.3731V16H12V12.1514C11.8778 12.2006 11.7652 12.2621 11.651 12.3368ZM7 2C9.76142 2 12 4.23858 12 7V10.0825C11.4469 10.1838 10.9922 10.3779 10.5561 10.6632C10.5061 10.6959 10.4031 10.7669 10.3151 10.8276C10.2471 10.8745 10.188 10.9152 10.1692 10.9274C10.0694 10.9919 10.0469 11 10 11C9.82501 11 9.58881 10.9102 8.96821 10.6035C8.59391 10.4185 8.39861 10.328 8.15554 10.2357C7.75485 10.0835 7.38217 10 7 10C6.41113 10 5.94138 10.1639 5.21165 10.5275L5.21082 10.528C5.13129 10.5677 5.13102 10.5679 5.05356 10.6069C4.45484 10.9084 4.21056 11 4 11C3.78796 11 3.53759 10.9067 2.93798 10.6061C2.53332 10.4032 2.25278 10.2711 2 10.1811V7C2 4.23858 4.23858 2 7 2Z" fill="black"/>
</svg>
