<svg width="20" height="20" viewBox="0 0 20 20" fill="none" xmlns="http://www.w3.org/2000/svg">
<path fill-rule="evenodd" clip-rule="evenodd" d="M3.49704 5C3.16883 4.46338 3 3.80285 3 3C3 1.41709 4.19035 0 6 0C7.81199 0 9.27327 1.21363 10 3.11383C10.7267 1.21363 12.188 0 14 0C15.8096 0 17 1.41709 17 3C17 3.80285 16.8312 4.46338 16.503 5H18C19.1046 5 20 5.89543 20 7V9C20 10.1046 19.1046 11 18 11V18C18 19.1046 17.1046 20 16 20H4C2.89543 20 2 19.1046 2 18V11C0.89543 11 0 10.1046 0 9V7C0 5.89543 0.89543 5 2 5H3.49704ZM9 6.99999H2V8.99999H9V6.99999ZM18 8.99999H11V6.99999H18V8.99999ZM9 18V11H4V18H9ZM16 18H11V11H16V18ZM6 2.00001C5.37965 2.00001 5 2.45197 5 3.00001C5 4.25324 6.017 4.84913 8.42942 4.97449C8.1613 3.11161 7.16218 2.00001 6 2.00001ZM11.5 4.97449C11.7681 3.11161 12.7672 2.00001 13.9294 2.00001C14.5498 2.00001 14.9294 2.45197 14.9294 3.00001C14.9294 4.25324 13.9124 4.84913 11.5 4.97449Z" fill="black"/>
</svg>
